# Blender v3.2.1 OBJ File: ''
# www.blender.org
mtllib slash.mtl
o slash
v 0.085533 -146.736771 219.606842
v 0.078136 -74.042931 110.812973
v 0.078968 -51.001656 123.128799
v 0.087189 -101.074066 244.014099
v 0.063679 244.014160 -101.073906
v 0.067099 123.128899 -51.001629
v 0.065535 110.813103 -74.042900
v 0.060574 219.606995 -146.736572
v 0.083305 -186.760437 186.760239
v 0.077007 -94.238754 94.238655
v 0.067043 259.044067 -51.527000
v 0.068799 130.712921 -26.000401
v 0.080601 -219.606995 146.736496
v 0.075640 -110.813034 74.042801
v 0.070548 264.119049 0.000041
v 0.070566 133.273743 -0.000003
v 0.077496 -244.014191 101.073784
v 0.074072 -123.128830 51.001530
v 0.074129 -259.044037 51.526840
v 0.072371 -130.712860 26.000278
v 0.070624 -264.118958 -0.000250
v 0.070605 -133.273651 -0.000150
v 0.067118 -259.043945 -51.527325
v 0.068835 -130.712799 -26.000565
v 0.063751 -244.013977 -101.074234
v 0.067133 -123.128723 -51.001793
v 0.060635 -219.606689 -146.736923
v 0.065569 -110.812881 -74.043076
v 0.052971 51.527122 -259.043976
v 0.061695 26.000481 -130.712891
v 0.061520 0.000061 -133.273712
v 0.052620 0.000069 -264.118958
v 0.057907 -186.760010 -186.760529
v 0.064190 -94.238541 -94.238876
v 0.053978 101.074028 -244.014084
v 0.062202 51.001701 -123.128845
v 0.055672 -146.736298 -219.607101
v 0.063061 -74.042679 -110.813148
v 0.055634 146.736725 -219.606873
v 0.063038 74.042976 -110.813042
v 0.054008 -101.073547 -244.014252
v 0.062218 -51.001396 -123.128937
v 0.088211 -51.527153 259.044006
v 0.079475 -26.000427 130.712845
v 0.079651 0.000000 133.273682
v 0.088539 -0.000076 264.119019
v 0.057861 186.760376 -186.760284
v 0.064163 94.238792 -94.238739
v 0.052963 -51.526596 -259.044067
v 0.061703 -26.000145 -130.712936
v -0.020361 242.701721 -51.358124
v 11.654236 226.735138 -51.193928
v 11.651226 213.285004 -95.533173
v -0.023548 228.470886 -98.270897
v -0.032715 -98.270569 -233.611969
v 11.642563 -95.532043 -223.449677
v 11.644066 -136.395370 -201.607834
v -0.031120 -141.505707 -210.502380
v -0.013651 -247.842682 46.216953
v 11.660575 -236.898926 41.028366
v 11.663589 -223.448822 85.367638
v -0.010464 -233.611908 93.129791
v -0.017041 247.506836 -2.570478
v 11.657372 231.276703 -5.082683
v -0.033676 -51.357735 -247.842743
v 11.641640 -51.192764 -236.899780
v -0.033691 46.217232 -247.842636
v 11.641640 41.029427 -236.899689
v 11.641327 -5.081841 -241.441254
v -0.034019 -2.570435 -252.647797
v -0.016968 -252.647797 -2.570753
v 11.657441 -241.440460 -5.082941
v -0.000320 -51.358269 242.701630
v 11.673180 -51.193260 226.734299
v 11.673477 -5.081970 231.275879
v 0.000000 -2.570580 247.506836
v -0.032738 93.129982 -233.611801
v 11.642548 85.368660 -223.449493
v -0.020288 -247.842621 -51.358433
v 11.654305 -236.898834 -51.194221
v -0.001282 -98.271049 228.470795
v 11.672264 -95.532501 213.284119
v -0.031166 136.365082 -210.502167
v 11.644020 126.231941 -201.607651
v -0.023476 -233.611664 -98.271217
v 11.651287 -223.448608 -95.533463
v -0.002846 -141.506149 205.361115
v 11.670799 -136.395813 191.442184
v -0.029060 174.260925 -179.401825
v 11.646004 162.048889 -172.213409
v -0.026421 -210.502014 -141.506287
v 11.648506 -201.606674 -136.396744
v -0.004951 -179.401993 174.260742
v 11.668793 -172.212769 162.047928
v -0.026478 205.361267 -141.505966
v 11.648449 191.443115 -136.396439
v -0.029007 -179.401596 -179.402084
v 11.646057 -172.212372 -172.213654
v -0.007519 -210.502289 136.364868
v 11.666367 -201.606934 126.230927
v -11.685572 -223.448822 85.369225
v -11.682800 -201.606949 126.232521
v -11.705101 -136.395370 -201.606262
v -11.703102 -172.212372 -172.212067
v -11.697941 213.285004 -95.531578
v -11.700722 191.443115 -136.394852
v -11.680363 -172.212769 162.049515
v -11.700653 -201.606689 -136.395157
v -11.703156 162.048889 -172.211823
v -11.678368 -136.395813 191.443771
v -11.697880 -223.448608 -95.531876
v -11.705139 126.231941 -201.606079
v -11.676895 -95.532501 213.285706
v -11.694862 -236.898834 -51.192635
v -11.706627 85.368645 -223.447906
v -11.675987 -51.193260 226.735886
v -11.691725 -241.440460 -5.081352
v -11.707520 41.029419 -236.898102
v -11.707840 -5.081848 -241.439667
v -11.707520 -51.192768 -236.898193
v -11.675690 -5.081970 231.277481
v -11.688590 -236.898926 41.029953
v -11.706604 -95.532051 -223.448090
v -11.691793 231.276703 -5.081094
v -11.694929 226.735138 -51.192345
vt 0.131141 0.798479
vt 0.131141 0.004821
vt 0.090130 0.004821
vt 0.090130 0.798479
vt 0.910351 0.798479
vt 0.910351 0.004821
vt 0.869340 0.004821
vt 0.869340 0.798479
vt 0.172152 0.798479
vt 0.172152 0.004821
vt 0.951362 0.798479
vt 0.951362 0.004821
vt 0.213163 0.798479
vt 0.213163 0.004821
vt 0.992373 0.798479
vt 0.992373 0.004821
vt 0.254174 0.798479
vt 0.254174 0.004821
vt 0.295185 0.798479
vt 0.295185 0.004821
vt 0.336196 0.798479
vt 0.336196 0.004821
vt 0.377207 0.798479
vt 0.377207 0.004821
vt 0.418218 0.798479
vt 0.418218 0.004821
vt 0.459229 0.798479
vt 0.459229 0.004821
vt 0.705296 0.798479
vt 0.705296 0.004821
vt 0.664285 0.004821
vt 0.664285 0.798479
vt 0.500241 0.798479
vt 0.500241 0.004821
vt 0.746307 0.798479
vt 0.746307 0.004821
vt 0.541252 0.798479
vt 0.541252 0.004821
vt 0.787318 0.798479
vt 0.787318 0.004821
vt 0.582263 0.798479
vt 0.582263 0.004821
vt 0.049119 0.798479
vt 0.049119 0.004821
vt 0.008108 0.004821
vt 0.008108 0.798479
vt 0.828329 0.798479
vt 0.828329 0.004821
vt 0.623274 0.798479
vt 0.623274 0.004821
vt 0.958307 0.912250
vt 0.958307 0.998597
vt 0.916643 0.998597
vt 0.916643 0.912250
vt 0.583329 0.912251
vt 0.583329 0.998597
vt 0.541665 0.998597
vt 0.541665 0.912251
vt 0.291679 0.912251
vt 0.291679 0.998598
vt 0.250014 0.998598
vt 0.250014 0.912252
vt 0.999972 0.912250
vt 0.999972 0.998597
vt 0.624993 0.912251
vt 0.624993 0.998597
vt 0.708322 0.912251
vt 0.708322 0.998597
vt 0.666657 0.998597
vt 0.666657 0.912251
vt 0.333343 0.912251
vt 0.333343 0.998598
vt 0.041693 0.912253
vt 0.041693 0.998599
vt 0.000028 0.998599
vt 0.000028 0.912253
vt 0.749986 0.912251
vt 0.749986 0.998597
vt 0.375007 0.912251
vt 0.375007 0.998598
vt 0.083357 0.912252
vt 0.083357 0.998599
vt 0.791650 0.912250
vt 0.791650 0.998597
vt 0.416672 0.912251
vt 0.416672 0.998598
vt 0.125022 0.912252
vt 0.125022 0.998599
vt 0.833315 0.912250
vt 0.833315 0.998597
vt 0.458336 0.912251
vt 0.458336 0.998597
vt 0.166686 0.912252
vt 0.166686 0.998599
vt 0.874979 0.912250
vt 0.874979 0.998597
vt 0.500000 0.912251
vt 0.500000 0.998597
vt 0.208350 0.912252
vt 0.208350 0.998598
vt 0.250014 0.825905
vt 0.208350 0.825905
vt 0.541665 0.825904
vt 0.500000 0.825904
vt 0.916643 0.825904
vt 0.874979 0.825904
vt 0.166686 0.825906
vt 0.458336 0.825904
vt 0.833315 0.825904
vt 0.125022 0.825906
vt 0.416672 0.825905
vt 0.791650 0.825904
vt 0.083357 0.825906
vt 0.375007 0.825905
vt 0.749986 0.825904
vt 0.041693 0.825906
vt 0.333343 0.825905
vt 0.708322 0.825904
vt 0.666657 0.825904
vt 0.624993 0.825904
vt 0.000028 0.825906
vt 0.291679 0.825905
vt 0.583329 0.825904
vt 0.999972 0.825904
vt 0.958307 0.825904
vn 1.0000 0.0000 -0.0001
vn -0.0000 0.9824 -0.1865
vn 0.8017 0.5850 -0.1226
vn 0.7899 0.5638 -0.2412
vn -0.0000 0.9276 -0.3735
vn -0.0001 -0.3780 -0.9258
vn 0.6662 -0.2893 -0.6874
vn 0.6591 -0.4196 -0.6241
vn -0.0001 -0.5534 -0.8329
vn 0.0000 -0.9787 0.2052
vn 0.7082 -0.6940 0.1295
vn 0.7258 -0.6389 0.2551
vn 0.0000 -0.9196 0.3930
vn -0.0000 0.9952 -0.0980
vn 0.8062 0.5889 -0.0581
vn -0.0001 -0.1880 -0.9822
vn 0.6773 -0.1494 -0.7204
vn -0.0001 0.2052 -0.9787
vn 0.7081 0.1296 -0.6941
vn 0.6916 -0.0074 -0.7222
vn -0.0001 0.0090 -1.0000
vn 0.0000 -1.0000 0.0090
vn 0.6917 -0.7222 -0.0075
vn 0.0001 -0.1865 0.9824
vn 0.8018 -0.1225 0.5849
vn 0.8062 -0.0580 0.5888
vn 0.0001 -0.0980 0.9952
vn -0.0001 0.3930 -0.9196
vn 0.7257 0.2551 -0.6389
vn -0.0000 -0.9822 -0.1880
vn 0.6773 -0.7203 -0.1495
vn 0.0001 -0.3735 0.9276
vn 0.7900 -0.2411 0.5637
vn -0.0001 0.5651 -0.8250
vn 0.7434 0.3642 -0.5609
vn -0.0000 -0.9258 -0.3780
vn 0.6662 -0.6873 -0.2894
vn 0.0001 -0.5465 0.8374
vn 0.7761 -0.3569 0.5199
vn -0.0000 0.7151 -0.6990
vn 0.7604 0.4532 -0.4652
vn -0.0000 -0.8329 -0.5534
vn 0.6591 -0.6240 -0.4197
vn 0.0000 -0.6990 0.7151
vn 0.7605 -0.4651 0.4531
vn -0.0000 0.8374 -0.5465
vn 0.7761 0.5199 -0.3569
vn -0.0000 -0.7071 -0.7071
vn 0.6567 -0.5332 -0.5333
vn 0.0000 -0.8250 0.5651
vn 0.7435 -0.5609 0.3641
vn -0.7258 -0.6389 0.2552
vn -0.7435 -0.5609 0.3642
vn -0.6592 -0.4196 -0.6240
vn -0.6568 -0.5332 -0.5332
vn -0.7899 0.5638 -0.2411
vn -0.7761 0.5199 -0.3568
vn -0.7604 -0.4651 0.4532
vn -0.6592 -0.6240 -0.4196
vn -0.7605 0.4532 -0.4651
vn -0.7760 -0.3569 0.5200
vn -0.6662 -0.6873 -0.2893
vn -0.7435 0.3642 -0.5608
vn -0.7899 -0.2411 0.5638
vn -0.6774 -0.7203 -0.1494
vn -0.7258 0.2551 -0.6388
vn -0.8017 -0.1225 0.5850
vn -0.6917 -0.7222 -0.0074
vn -0.7082 0.1296 -0.6940
vn -0.6917 -0.0074 -0.7221
vn -0.6774 -0.1494 -0.7203
vn -0.8061 -0.0580 0.5889
vn -0.7082 -0.6940 0.1296
vn -0.6663 -0.2893 -0.6873
vn -0.8062 0.5889 -0.0579
vn -0.8018 0.5850 -0.1225
usemtl Default_OBJ
s 1
f 1/1/1 2/2/1 3/3/1 4/4/1
f 5/5/1 6/6/1 7/7/1 8/8/1
f 9/9/1 10/10/1 2/2/1 1/1/1
f 11/11/1 12/12/1 6/6/1 5/5/1
f 13/13/1 14/14/1 10/10/1 9/9/1
f 15/15/1 16/16/1 12/12/1 11/11/1
f 17/17/1 18/18/1 14/14/1 13/13/1
f 19/19/1 20/20/1 18/18/1 17/17/1
f 21/21/1 22/22/1 20/20/1 19/19/1
f 23/23/1 24/24/1 22/22/1 21/21/1
f 25/25/1 26/26/1 24/24/1 23/23/1
f 27/27/1 28/28/1 26/26/1 25/25/1
f 29/29/1 30/30/1 31/31/1 32/32/1
f 33/33/1 34/34/1 28/28/1 27/27/1
f 35/35/1 36/36/1 30/30/1 29/29/1
f 37/37/1 38/38/1 34/34/1 33/33/1
f 39/39/1 40/40/1 36/36/1 35/35/1
f 41/41/1 42/42/1 38/38/1 37/37/1
f 43/43/1 44/44/1 45/45/1 46/46/1
f 47/47/1 48/48/1 40/40/1 39/39/1
f 49/49/1 50/50/1 42/42/1 41/41/1
f 4/4/1 3/3/1 44/44/1 43/43/1
f 8/8/1 7/7/1 48/48/1 47/47/1
f 32/32/1 31/31/1 50/50/1 49/49/1
f 51/51/2 52/52/3 53/53/4 54/54/5
f 55/55/6 56/56/7 57/57/8 58/58/9
f 59/59/10 60/60/11 61/61/12 62/62/13
f 63/63/14 64/64/15 52/52/3 51/51/2
f 65/65/16 66/66/17 56/56/7 55/55/6
f 67/67/18 68/68/19 69/69/20 70/70/21
f 71/71/22 72/72/23 60/60/11 59/59/10
f 73/73/24 74/74/25 75/75/26 76/76/27
f 70/70/21 69/69/20 66/66/17 65/65/16
f 77/77/28 78/78/29 68/68/19 67/67/18
f 79/79/30 80/80/31 72/72/23 71/71/22
f 81/81/32 82/82/33 74/74/25 73/73/24
f 83/83/34 84/84/35 78/78/29 77/77/28
f 85/85/36 86/86/37 80/80/31 79/79/30
f 87/87/38 88/88/39 82/82/33 81/81/32
f 89/89/40 90/90/41 84/84/35 83/83/34
f 91/91/42 92/92/43 86/86/37 85/85/36
f 93/93/44 94/94/45 88/88/39 87/87/38
f 95/95/46 96/96/47 90/90/41 89/89/40
f 97/97/48 98/98/49 92/92/43 91/91/42
f 99/99/50 100/100/51 94/94/45 93/93/44
f 54/54/5 53/53/4 96/96/47 95/95/46
f 58/58/9 57/57/8 98/98/49 97/97/48
f 62/62/13 61/61/12 100/100/51 99/99/50
f 101/101/52 62/62/13 99/99/50 102/102/53
f 103/103/54 58/58/9 97/97/48 104/104/55
f 105/105/56 54/54/5 95/95/46 106/106/57
f 102/102/53 99/99/50 93/93/44 107/107/58
f 104/104/55 97/97/48 91/91/42 108/108/59
f 106/106/57 95/95/46 89/89/40 109/109/60
f 107/107/58 93/93/44 87/87/38 110/110/61
f 108/108/59 91/91/42 85/85/36 111/111/62
f 109/109/60 89/89/40 83/83/34 112/112/63
f 110/110/61 87/87/38 81/81/32 113/113/64
f 111/111/62 85/85/36 79/79/30 114/114/65
f 112/112/63 83/83/34 77/77/28 115/115/66
f 113/113/64 81/81/32 73/73/24 116/116/67
f 114/114/65 79/79/30 71/71/22 117/117/68
f 115/115/66 77/77/28 67/67/18 118/118/69
f 119/119/70 70/70/21 65/65/16 120/120/71
f 116/116/67 73/73/24 76/76/27 121/121/72
f 117/117/68 71/71/22 59/59/10 122/122/73
f 118/118/69 67/67/18 70/70/21 119/119/70
f 120/120/71 65/65/16 55/55/6 123/123/74
f 124/124/75 63/63/14 51/51/2 125/125/76
f 122/122/73 59/59/10 62/62/13 101/101/52
f 123/123/74 55/55/6 58/58/9 103/103/54
f 125/125/76 51/51/2 54/54/5 105/105/56
